<svg width="66" height="54" viewBox="0 0 66 54" fill="none" xmlns="http://www.w3.org/2000/svg">
<path d="M13.463 17.1878C13.463 16.1887 13.1072 15.4186 12.3957 14.8774C11.6946 14.3362 10.4233 13.7898 8.58171 13.2382C6.74013 12.6866 5.27524 12.0726 4.18703 11.3961C2.10478 10.0952 1.06366 8.39877 1.06366 6.30689C1.06366 4.47518 1.8118 2.96611 3.30809 1.77967C4.81484 0.593222 6.76629 0 9.16244 0C10.7529 0 12.1707 0.291407 13.4159 0.874222C14.661 1.45704 15.6394 2.28963 16.3509 3.372C17.0624 4.44396 17.4182 5.63561 17.4182 6.94694H13.463C13.463 5.7605 13.0863 4.83424 12.3329 4.16816C11.59 3.49168 10.5227 3.15344 9.13105 3.15344C7.83357 3.15344 6.82384 3.42924 6.10185 3.98083C5.39033 4.53242 5.03457 5.30257 5.03457 6.29127C5.03457 7.12387 5.42172 7.82116 6.19603 8.38316C6.97033 8.93475 8.24688 9.47594 10.0257 10.0067C11.8045 10.5271 13.2328 11.1255 14.3105 11.802C15.3882 12.4681 16.1782 13.2382 16.6805 14.1124C17.1827 14.9762 17.4339 15.991 17.4339 17.1566C17.4339 19.0507 16.7014 20.5598 15.2365 21.6838C13.7821 22.7974 11.8045 23.3542 9.3037 23.3542C7.65046 23.3542 6.12801 23.0524 4.73636 22.4488C3.35518 21.8347 2.27743 20.9917 1.50313 19.9198C0.739289 18.8478 0.35737 17.5989 0.35737 16.1731H4.32828C4.32828 17.4636 4.75729 18.4627 5.6153 19.1704C6.47331 19.8781 7.70278 20.232 9.3037 20.232C10.6849 20.232 11.7208 19.9562 12.4114 19.4046C13.1124 18.8426 13.463 18.1037 13.463 17.1878Z" fill="white"/>
<path d="M29.3152 14.2842H24.8891V23.042H20.9182V0.312222H28.9542C31.591 0.312222 33.6262 0.90024 35.0597 2.07628C36.4932 3.25231 37.21 4.95392 37.21 7.18111C37.21 8.70059 36.8385 9.97549 36.0956 11.0058C35.3632 12.0258 34.3377 12.8115 33.0193 13.3631L38.1517 22.839V23.042H33.8983L29.3152 14.2842ZM24.8891 11.1151H28.9699C30.3093 11.1151 31.3556 10.7821 32.109 10.116C32.8624 9.43951 33.2391 8.51846 33.2391 7.35283C33.2391 6.13516 32.8885 5.19329 32.1875 4.52722C31.4969 3.86115 30.461 3.5177 29.0798 3.49689H24.8891V11.1151Z" fill="white"/>
<path d="M46.1249 0.312222L52.7169 17.7342L59.2933 0.312222H64.4256V23.042H60.4704V15.5487L60.8628 5.52633L54.1138 23.042H51.273L44.5397 5.54194L44.9321 15.5487V23.042H40.9768V0.312222H46.1249Z" fill="white"/>
<path d="M9.0731 49.731C9.0731 49.0393 8.8268 48.5061 8.33421 48.1314C7.84886 47.7568 6.96872 47.3785 5.69378 46.9966C4.41883 46.6147 3.40468 46.1896 2.6513 45.7213C1.20975 44.8207 0.488969 43.6462 0.488969 42.198C0.488969 40.9299 1.00691 39.8852 2.04281 39.0638C3.08594 38.2424 4.43694 37.8317 6.09582 37.8317C7.1969 37.8317 8.17847 38.0334 9.0405 38.4369C9.90254 38.8404 10.5798 39.4168 11.0724 40.1662C11.565 40.9083 11.8113 41.7333 11.8113 42.6411H9.0731C9.0731 41.8197 8.81231 41.1785 8.29075 40.7174C7.77642 40.249 7.03754 40.0149 6.07409 40.0149C5.17583 40.0149 4.47679 40.2058 3.97695 40.5877C3.48436 40.9695 3.23806 41.5027 3.23806 42.1872C3.23806 42.7636 3.50609 43.2464 4.04215 43.6354C4.5782 44.0173 5.46197 44.392 6.69345 44.7594C7.92493 45.1197 8.91373 45.534 9.65986 46.0023C10.406 46.4634 10.9529 46.9966 11.3006 47.6019C11.6483 48.1999 11.8222 48.9024 11.8222 49.7094C11.8222 51.0207 11.3151 52.0654 10.301 52.8436C9.29404 53.6145 7.92493 54 6.19361 54C5.04906 54 3.99506 53.7911 3.03161 53.3732C2.0754 52.9481 1.32927 52.3644 0.793217 51.6223C0.264406 50.8802 0 50.0156 0 49.0285H2.74909C2.74909 49.9219 3.0461 50.6136 3.64011 51.1035C4.23411 51.5935 5.08528 51.8385 6.19361 51.8385C7.14982 51.8385 7.86697 51.6475 8.34508 51.2657C8.83042 50.8766 9.0731 50.365 9.0731 49.731Z" fill="white"/>
<path d="M16.9835 47.9369V53.7838H14.2344V38.0479H20.2868C22.0543 38.0479 23.456 38.5054 24.4919 39.4204C25.5351 40.3355 26.0566 41.5459 26.0566 43.0518C26.0566 44.5937 25.5459 45.7934 24.5245 46.6508C23.5104 47.5082 22.0869 47.9369 20.2542 47.9369H16.9835ZM16.9835 45.7429H20.2868C21.2647 45.7429 22.0109 45.516 22.5252 45.062C23.0395 44.6009 23.2967 43.938 23.2967 43.0734C23.2967 42.2232 23.0359 41.5459 22.5143 41.0416C21.9928 40.53 21.2756 40.267 20.3629 40.2526H16.9835V45.7429Z" fill="white"/>
<path d="M35.3905 50.12H29.2621L27.9799 53.7838H25.1222L31.0985 38.0479H33.565L39.5522 53.7838H36.6836L35.3905 50.12ZM30.0336 47.9153H34.619L32.3263 41.3874L30.0336 47.9153Z" fill="white"/>
<path d="M53.189 48.661C53.0296 50.3398 52.4067 51.6511 51.3201 52.595C50.2335 53.5317 48.7883 54 46.9845 54C45.7241 54 44.6121 53.7046 43.6487 53.1138C42.6925 52.5157 41.9536 51.6691 41.432 50.574C40.9104 49.4788 40.6388 48.2071 40.6171 46.7589V45.289C40.6171 43.8048 40.8815 42.497 41.4103 41.3658C41.9391 40.2346 42.6961 39.3628 43.6813 38.7504C44.6737 38.1379 45.8182 37.8317 47.1149 37.8317C48.8607 37.8317 50.2661 38.3036 51.3309 39.2475C52.3958 40.1914 53.0151 41.5243 53.189 43.2464H50.4508C50.3204 42.1152 49.9872 41.301 49.4511 40.8038C48.9223 40.2995 48.1436 40.0473 47.1149 40.0473C45.9197 40.0473 44.9997 40.4832 44.355 41.355C43.7175 42.2196 43.3915 43.4913 43.377 45.1701V46.5643C43.377 48.2647 43.6813 49.5616 44.2898 50.4551C44.9055 51.3485 45.8038 51.7952 46.9845 51.7952C48.0639 51.7952 48.8752 51.5539 49.4185 51.0711C49.9618 50.5884 50.3059 49.785 50.4508 48.661H53.189Z" fill="white"/>
<path d="M64.9025 46.7589H58.4047V51.6007H66V53.7838H55.6556V38.0479H65.9239V40.2526H58.4047V44.5973H64.9025V46.7589Z" fill="white"/>
</svg>
